# xmcd
#
# Track frame offsets:
#	150
#	28871
#	56471
#	64717
#	115587
#	154508
#	183045
#	208733
#	235503
#	266413
#	309736
#
# Disc length: 4630 seconds
#
# Revision: 1
# Processed by: cddbd v1.5.2PL0 Copyright (c) Steve Scherf et al.
# Submitted via: audiograbber 1.83.01
#
DISCID=8712140b
DTITLE=Grateful Dead - 82-09-09 Saenger Performing Arts Centre, New Orleans LA
DYEAR=1900
DGENRE=
TTITLE0=Uncle John's Band
TTITLE1=Samson and Delilah
TTITLE2=Uncle John's Band
TTITLE3=Estimated Prophet
TTITLE4=Eyes Of The World
TTITLE5=Drums
TTITLE6=Space
TTITLE7=The Wheel
TTITLE8=The Other One
TTITLE9=Wharf Rat
TTITLE10=Good Lovin'
EXTD=
EXTT0=
EXTT1=
EXTT2=
EXTT3=
EXTT4=
EXTT5=
EXTT6=
EXTT7=
EXTT8=
EXTT9=
EXTT10=
PLAYORDER=
